<?xml version="1.0" encoding="UTF-8"?><svg id="c" xmlns="http://www.w3.org/2000/svg" width="175.6008" height="173.1692" viewBox="0 0 175.6008 173.1692"><line x1="73.5762" y1="7.1051" x2="18.9256" y2="44.1817" style="fill:none; stroke:#fff; stroke-linecap:round; stroke-miterlimit:10;"/><line x1="51.0388" y1="14.636" x2="34.3561" y2="25.954" style="fill:none; stroke:#fff; stroke-linecap:round; stroke-miterlimit:10;"/><line x1="114.4109" y1="10.422" x2="6.9312" y2="83.3394" style="fill:none; stroke:#fff; stroke-linecap:round; stroke-miterlimit:10;"/><line x1="106.4289" y1="8.078" x2="7.691" y2="75.0648" style="fill:none; stroke:#fff; stroke-linecap:round; stroke-miterlimit:10;"/><line x1="97.5191" y1="6.4806" x2="9.4765" y2="66.2113" style="fill:none; stroke:#fff; stroke-linecap:round; stroke-miterlimit:10;"/><line x1="86.8425" y1="5.8876" x2="12.8545" y2="56.0833" style="fill:none; stroke:#fff; stroke-linecap:round; stroke-miterlimit:10;"/><line x1="139.3131" y1="24.5613" x2="10.8266" y2="111.7303" style="fill:none; stroke:#fff; stroke-linecap:round; stroke-miterlimit:10;"/><line x1="133.9355" y1="20.4504" x2="9.0015" y2="105.2093" style="fill:none; stroke:#fff; stroke-linecap:round; stroke-miterlimit:10;"/><line x1="128.1333" y1="16.7447" x2="7.7152" y2="98.4399" style="fill:none; stroke:#fff; stroke-linecap:round; stroke-miterlimit:10;"/><line x1="121.5981" y1="13.3421" x2="6.9833" y2="91.1002" style="fill:none; stroke:#fff; stroke-linecap:round; stroke-miterlimit:10;"/><line x1="156.2961" y1="44.0598" x2="22.6892" y2="134.7028" style="fill:none; stroke:#fff; stroke-linecap:round; stroke-miterlimit:10;"/><line x1="152.6911" y1="38.7464" x2="19.075" y2="129.3956" style="fill:none; stroke:#fff; stroke-linecap:round; stroke-miterlimit:10;"/><line x1="148.7275" y1="33.7933" x2="15.9295" y2="123.8875" style="fill:none; stroke:#fff; stroke-linecap:round; stroke-miterlimit:10;"/><line x1="144.2302" y1="29.0081" x2="13.1405" y2="117.9433" style="fill:none; stroke:#fff; stroke-linecap:round; stroke-miterlimit:10;"/><line x1="166.3315" y1="68.2801" x2="41.49" y2="152.9763" style="fill:none; stroke:#fff; stroke-linecap:round; stroke-miterlimit:10;"/><line x1="164.5178" y1="61.7515" x2="36.1013" y2="148.873" style="fill:none; stroke:#fff; stroke-linecap:round; stroke-miterlimit:10;"/><line x1="162.2603" y1="55.6409" x2="31.2586" y2="144.5163" style="fill:none; stroke:#fff; stroke-linecap:round; stroke-miterlimit:10;"/><line x1="159.4895" y1="49.6844" x2="26.7434" y2="139.7433" style="fill:none; stroke:#fff; stroke-linecap:round; stroke-miterlimit:10;"/><line x1="167.5802" y1="98.4533" x2="69.0468" y2="165.3013" style="fill:none; stroke:#fff; stroke-linecap:round; stroke-miterlimit:10;"/><line x1="168.3592" y1="90.1656" x2="61.0452" y2="162.9707" style="fill:none; stroke:#fff; stroke-linecap:round; stroke-miterlimit:10;"/><line x1="168.3301" y1="82.5433" x2="53.9776" y2="160.1234" style="fill:none; stroke:#fff; stroke-linecap:round; stroke-miterlimit:10;"/><line x1="167.6238" y1="75.1862" x2="47.4166" y2="156.7383" style="fill:none; stroke:#fff; stroke-linecap:round; stroke-miterlimit:10;"/><line x1="139.995" y1="148.2017" x2="125.4957" y2="158.0384" style="fill:none; stroke:#fff; stroke-linecap:round; stroke-miterlimit:10;"/><line x1="156.1815" y1="129.4611" x2="102.074" y2="166.1692" style="fill:none; stroke:#fff; stroke-linecap:round; stroke-miterlimit:10;"/><line x1="162.261" y1="117.6945" x2="88.9314" y2="167.4435" style="fill:none; stroke:#fff; stroke-linecap:round; stroke-miterlimit:10;"/><line x1="165.719" y1="107.5122" x2="78.176" y2="166.9039" style="fill:none; stroke:#fff; stroke-linecap:round; stroke-miterlimit:10;"/><line x1="101.9052" y1="18.9062" x2="53.1321" y2="51.9953" style="fill:none; stroke:#fff; stroke-linecap:round; stroke-miterlimit:10; stroke-width:3px;"/><line x1="87.3493" y1="21.0221" x2="53.1227" y2="44.2425" style="fill:none; stroke:#fff; stroke-linecap:round; stroke-miterlimit:10; stroke-width:3px;"/><line x1="71.6428" y1="70.4708" x2="53.1227" y2="83.0354" style="fill:none; stroke:#fff; stroke-linecap:round; stroke-miterlimit:10; stroke-width:3px;"/><line x1="71.6676" y1="62.6948" x2="53.1416" y2="75.2634" style="fill:none; stroke:#fff; stroke-linecap:round; stroke-miterlimit:10; stroke-width:3px;"/><line x1="71.6428" y1="55.0695" x2="53.1696" y2="67.6023" style="fill:none; stroke:#fff; stroke-linecap:round; stroke-miterlimit:10; stroke-width:3px;"/><polyline points="101.9032 26.7037 84.6923 38.3801 71.6428 47.2332 53.1353 59.7893" style="fill:none; stroke:#fff; stroke-linecap:round; stroke-miterlimit:10; stroke-width:3px;"/><line x1="71.6752" y1="101.4692" x2="53.1696" y2="114.0239" style="fill:none; stroke:#fff; stroke-linecap:round; stroke-miterlimit:10; stroke-width:3px;"/><line x1="71.6428" y1="93.732" x2="53.1696" y2="106.2647" style="fill:none; stroke:#fff; stroke-linecap:round; stroke-miterlimit:10; stroke-width:3px;"/><line x1="95.1678" y1="70.1299" x2="53.1511" y2="98.6352" style="fill:none; stroke:#fff; stroke-linecap:round; stroke-miterlimit:10; stroke-width:3px;"/><line x1="79.5425" y1="72.8942" x2="53.1479" y2="90.801" style="fill:none; stroke:#fff; stroke-linecap:round; stroke-miterlimit:10; stroke-width:3px;"/><line x1="71.6752" y1="132.4978" x2="53.9694" y2="144.51" style="fill:none; stroke:#fff; stroke-linecap:round; stroke-miterlimit:10; stroke-width:3px;"/><line x1="71.6155" y1="124.7791" x2="53.1669" y2="137.2952" style="fill:none; stroke:#fff; stroke-linecap:round; stroke-miterlimit:10; stroke-width:3px;"/><line x1="71.6752" y1="117.0965" x2="53.1637" y2="129.6552" style="fill:none; stroke:#fff; stroke-linecap:round; stroke-miterlimit:10; stroke-width:3px;"/><line x1="71.6752" y1="109.2602" x2="53.1462" y2="121.8309" style="fill:none; stroke:#fff; stroke-linecap:round; stroke-miterlimit:10; stroke-width:3px;"/><line x1="68.706" y1="25.5954" x2="53.1227" y2="36.1675" style="fill:none; stroke:#fff; stroke-linecap:round; stroke-miterlimit:10; stroke-width:3px;"/><line x1="95.191" y1="77.7562" x2="73.4046" y2="92.5367" style="fill:none; stroke:#fff; stroke-linecap:round; stroke-miterlimit:10; stroke-width:3px;"/><line x1="103.6845" y1="17.699" x2="101.8295" y2="18.9575" style="fill:none; stroke:#fff; stroke-linecap:round; stroke-miterlimit:10; stroke-width:5px;"/><line x1="89.7311" y1="58.1992" x2="71.5893" y2="70.5071" style="fill:none; stroke:#fff; stroke-linecap:round; stroke-miterlimit:10; stroke-width:5px;"/><line x1="121.4111" y1="36.7065" x2="106.4144" y2="46.8807" style="fill:none; stroke:#fff; stroke-linecap:round; stroke-miterlimit:10; stroke-width:5px;"/><line x1="121.4249" y1="28.938" x2="71.5778" y2="62.7557" style="fill:none; stroke:#fff; stroke-linecap:round; stroke-miterlimit:10; stroke-width:5px;"/><line x1="116.6206" y1="24.5552" x2="71.5672" y2="55.1208" style="fill:none; stroke:#fff; stroke-linecap:round; stroke-miterlimit:10; stroke-width:5px;"/><line x1="86.2139" y1="37.3477" x2="71.5672" y2="47.2845" style="fill:none; stroke:#fff; stroke-linecap:round; stroke-miterlimit:10; stroke-width:5px;"/><line x1="110.1344" y1="21.1194" x2="101.8285" y2="26.7544" style="fill:none; stroke:#fff; stroke-linecap:round; stroke-miterlimit:10; stroke-width:5px;"/><line x1="91.6305" y1="87.9309" x2="71.5672" y2="101.5424" style="fill:none; stroke:#fff; stroke-linecap:round; stroke-miterlimit:10; stroke-width:5px;"/><line x1="108.2263" y1="76.6718" x2="95.0514" y2="85.6101" style="fill:none; stroke:#fff; stroke-linecap:round; stroke-miterlimit:10; stroke-width:5px;"/><line x1="74.8733" y1="91.5403" x2="71.5672" y2="93.7833" style="fill:none; stroke:#fff; stroke-linecap:round; stroke-miterlimit:10; stroke-width:5px;"/><line x1="102.0769" y1="73.0846" x2="95.1248" y2="77.8011" style="fill:none; stroke:#fff; stroke-linecap:round; stroke-miterlimit:10; stroke-width:5px;"/><line x1="95.9965" y1="69.5676" x2="95.1677" y2="70.1299" style="fill:none; stroke:#fff; stroke-linecap:round; stroke-miterlimit:10; stroke-width:5px;"/><line x1="89.7311" y1="65.982" x2="79.152" y2="73.1591" style="fill:none; stroke:#fff; stroke-linecap:round; stroke-miterlimit:10; stroke-width:5px;"/><line x1="55.2562" y1="143.637" x2="53.9611" y2="144.5156" style="fill:none; stroke:#fff; stroke-linecap:round; stroke-miterlimit:10; stroke-width:5px;"/><line x1="89.8568" y1="120.1628" x2="71.5672" y2="132.5711" style="fill:none; stroke:#fff; stroke-linecap:round; stroke-miterlimit:10; stroke-width:5px;"/><line x1="89.8568" y1="112.4037" x2="71.5672" y2="124.8119" style="fill:none; stroke:#fff; stroke-linecap:round; stroke-miterlimit:10; stroke-width:5px;"/><line x1="89.8568" y1="104.7616" x2="71.4685" y2="117.2367" style="fill:none; stroke:#fff; stroke-linecap:round; stroke-miterlimit:10; stroke-width:5px;"/><line x1="111.5418" y1="90.0498" x2="101.812" y2="96.6508" style="fill:none; stroke:#fff; stroke-linecap:round; stroke-miterlimit:10; stroke-width:5px;"/><line x1="111.5418" y1="82.2135" x2="71.5672" y2="109.3335" style="fill:none; stroke:#fff; stroke-linecap:round; stroke-miterlimit:10; stroke-width:5px;"/><line x1="121.4249" y1="129.7665" x2="91.4633" y2="150.0933" style="fill:none; stroke:#fff; stroke-linecap:round; stroke-miterlimit:10; stroke-width:5px;"/><line x1="117.6193" y1="124.5891" x2="74.3797" y2="153.9242" style="fill:none; stroke:#fff; stroke-linecap:round; stroke-miterlimit:10; stroke-width:5px;"/><line x1="111.3047" y1="121.231" x2="66.7198" y2="151.4788" style="fill:none; stroke:#fff; stroke-linecap:round; stroke-miterlimit:10; stroke-width:5px;"/><line x1="104.0845" y1="118.2931" x2="60.3238" y2="147.9817" style="fill:none; stroke:#fff; stroke-linecap:round; stroke-miterlimit:10; stroke-width:5px;"/><line x1="121.4806" y1="137.5248" x2="108.7999" y2="146.1278" style="fill:none; stroke:#fff; stroke-linecap:round; stroke-miterlimit:10; stroke-width:5px;"/></svg>